<?xml version="1.0" encoding="utf-8" standalone="no"?>
<!DOCTYPE svg PUBLIC "-//W3C//DTD SVG 1.1//EN"
  "http://www.w3.org/Graphics/SVG/1.1/DTD/svg11.dtd">
<svg xmlns:xlink="http://www.w3.org/1999/xlink" width="1044pt" height="396pt" viewBox="0 0 1044 396" xmlns="http://www.w3.org/2000/svg" version="1.1">

 <defs>
  <style type="text/css">*{stroke-linejoin: round; stroke-linecap: butt}</style>
 </defs>
 <g id="figure_1">
  <g id="patch_1">
   <path d="M 0 396
L 1044 396
L 1044 0
L 0 0
z
" style="fill: #ffffff"/>
  </g>
  <g id="axes_1">
   <g id="patch_2">
    <path d="M 67.86 312.84
L 1038.78 312.84
L 1038.78 67.32
L 67.86 67.32
z
" style="fill: #ffffff"/>
   </g>
   <g id="matplotlib.axis_1">
    <g id="xtick_1">
     <g id="line2d_1"/>
     <g id="text_1">
      <text style="font-size: 10px; font-family: 'DejaVu Sans'; text-anchor: middle; fill: #444444" x="136.039406" y="329.437656" transform="rotate(-0 136.039406 329.437656)">8B</text>
     </g>
    </g>
    <g id="xtick_2">
     <g id="line2d_2"/>
     <g id="text_2">
      <text style="font-size: 10px; font-family: 'DejaVu Sans'; text-anchor: middle; fill: #444444" x="206.76493" y="329.437656" transform="rotate(-0 206.76493 329.437656)">32B</text>
     </g>
    </g>
    <g id="xtick_3">
     <g id="line2d_3"/>
     <g id="text_3">
      <text style="font-size: 10px; font-family: 'DejaVu Sans'; text-anchor: middle; fill: #444444" x="277.490455" y="329.437656" transform="rotate(-0 277.490455 329.437656)">235B</text>
     </g>
    </g>
    <g id="xtick_4">
     <g id="line2d_4"/>
     <g id="text_4">
      <text style="font-size: 10px; font-family: 'DejaVu Sans'; text-anchor: middle; fill: #444444" x="390.651294" y="329.438438" transform="rotate(-0 390.651294 329.438438)">low</text>
     </g>
    </g>
    <g id="xtick_5">
     <g id="line2d_5"/>
     <g id="text_5">
      <text style="font-size: 10px; font-family: 'DejaVu Sans'; text-anchor: middle; fill: #444444" x="461.376818" y="329.437656" transform="rotate(-0 461.376818 329.437656)">gateway</text>
     </g>
    </g>
    <g id="xtick_6">
     <g id="line2d_6"/>
     <g id="text_6">
      <text style="font-size: 10px; font-family: 'DejaVu Sans'; text-anchor: middle; fill: #444444" x="532.102343" y="329.437656" transform="rotate(-0 532.102343 329.437656)">max</text>
     </g>
    </g>
    <g id="xtick_7">
     <g id="line2d_7"/>
     <g id="text_7">
      <text style="font-size: 10px; font-family: 'DejaVu Sans'; text-anchor: middle; fill: #444444" x="645.263182" y="329.437656" transform="rotate(-0 645.263182 329.437656)">2.5 Pro</text>
     </g>
    </g>
    <g id="xtick_8">
     <g id="line2d_8"/>
     <g id="text_8">
      <text style="font-size: 10px; font-family: 'DejaVu Sans'; text-anchor: middle; fill: #444444" x="715.988706" y="329.438438" transform="rotate(-0 715.988706 329.438438)">3 Flash</text>
     </g>
    </g>
    <g id="xtick_9">
     <g id="line2d_9"/>
     <g id="text_9">
      <text style="font-size: 10px; font-family: 'DejaVu Sans'; text-anchor: middle; fill: #444444" x="786.714231" y="329.438438" transform="rotate(-0 786.714231 329.438438)">3.7 Flash</text>
     </g>
    </g>
    <g id="xtick_10">
     <g id="line2d_10"/>
     <g id="text_10">
      <text style="font-size: 10px; font-family: 'DejaVu Sans'; text-anchor: middle; fill: #444444" x="899.87507" y="329.437656" transform="rotate(-0 899.87507 329.437656)">5.2</text>
     </g>
    </g>
    <g id="xtick_11">
     <g id="line2d_11"/>
     <g id="text_11">
      <text style="font-size: 10px; font-family: 'DejaVu Sans'; text-anchor: middle; fill: #444444" x="970.600594" y="329.437656" transform="rotate(-0 970.600594 329.437656)">5.6</text>
     </g>
    </g>
   </g>
   <g id="matplotlib.axis_2">
    <g id="ytick_1">
     <g id="line2d_12">
      <path d="M 67.86 312.84
L 1038.78 312.84
" clip-path="url(#p5dce6856d6)" style="fill: none; stroke: #e8e8e8; stroke-width: 0.7; stroke-linecap: square"/>
     </g>
     <g id="line2d_13"/>
     <g id="text_12">
      <text style="font-size: 11px; font-family: 'DejaVu Sans'; text-anchor: end; fill: #444444" x="58.86" y="317.018711" transform="rotate(-0 58.86 317.018711)">0</text>
     </g>
    </g>
    <g id="ytick_2">
     <g id="line2d_14">
      <path d="M 67.86 267.373333
L 1038.78 267.373333
" clip-path="url(#p5dce6856d6)" style="fill: none; stroke: #e8e8e8; stroke-width: 0.7; stroke-linecap: square"/>
     </g>
     <g id="line2d_15"/>
     <g id="text_13">
      <text style="font-size: 11px; font-family: 'DejaVu Sans'; text-anchor: end; fill: #444444" x="58.86" y="271.552044" transform="rotate(-0 58.86 271.552044)">20</text>
     </g>
    </g>
    <g id="ytick_3">
     <g id="line2d_16">
      <path d="M 67.86 221.906667
L 1038.78 221.906667
" clip-path="url(#p5dce6856d6)" style="fill: none; stroke: #e8e8e8; stroke-width: 0.7; stroke-linecap: square"/>
     </g>
     <g id="line2d_17"/>
     <g id="text_14">
      <text style="font-size: 11px; font-family: 'DejaVu Sans'; text-anchor: end; fill: #444444" x="58.86" y="226.085378" transform="rotate(-0 58.86 226.085378)">40</text>
     </g>
    </g>
    <g id="ytick_4">
     <g id="line2d_18">
      <path d="M 67.86 176.44
L 1038.78 176.44
" clip-path="url(#p5dce6856d6)" style="fill: none; stroke: #e8e8e8; stroke-width: 0.7; stroke-linecap: square"/>
     </g>
     <g id="line2d_19"/>
     <g id="text_15">
      <text style="font-size: 11px; font-family: 'DejaVu Sans'; text-anchor: end; fill: #444444" x="58.86" y="180.618711" transform="rotate(-0 58.86 180.618711)">60</text>
     </g>
    </g>
    <g id="ytick_5">
     <g id="line2d_20">
      <path d="M 67.86 130.973333
L 1038.78 130.973333
" clip-path="url(#p5dce6856d6)" style="fill: none; stroke: #e8e8e8; stroke-width: 0.7; stroke-linecap: square"/>
     </g>
     <g id="line2d_21"/>
     <g id="text_16">
      <text style="font-size: 11px; font-family: 'DejaVu Sans'; text-anchor: end; fill: #444444" x="58.86" y="135.152044" transform="rotate(-0 58.86 135.152044)">80</text>
     </g>
    </g>
    <g id="ytick_6">
     <g id="line2d_22">
      <path d="M 67.86 85.506667
L 1038.78 85.506667
" clip-path="url(#p5dce6856d6)" style="fill: none; stroke: #e8e8e8; stroke-width: 0.7; stroke-linecap: square"/>
     </g>
     <g id="line2d_23"/>
     <g id="text_17">
      <text style="font-size: 11px; font-family: 'DejaVu Sans'; text-anchor: end; fill: #444444" x="58.86" y="89.685378" transform="rotate(-0 58.86 89.685378)">100</text>
     </g>
    </g>
    <g id="text_18">
     <text style="font-size: 11px; font-family: 'DejaVu Sans'; text-anchor: middle; fill: #333333" x="31.221172" y="190.08" transform="rotate(-90 31.221172 190.08)">Accuracy (%)</text>
    </g>
   </g>
   <g id="patch_3">
    <path d="M 67.86 312.84
L 1038.78 312.84
" style="fill: none; stroke: #bbbbbb; stroke-width: 0.8; stroke-linejoin: miter; stroke-linecap: square"/>
   </g>
   <g id="patch_4">
    <path d="M 111.992727 312.84
L 127.552343 312.84
L 127.552343 205.084
L 111.992727 205.084
z
" clip-path="url(#p5dce6856d6)" style="fill: #a4a8b2"/>
   </g>
   <g id="patch_5">
    <path d="M 182.718252 312.84
L 198.277867 312.84
L 198.277867 193.262667
L 182.718252 193.262667
z
" clip-path="url(#p5dce6856d6)" style="fill: #a4a8b2"/>
   </g>
   <g id="patch_6">
    <path d="M 253.443776 312.84
L 269.003392 312.84
L 269.003392 196.672667
L 253.443776 196.672667
z
" clip-path="url(#p5dce6856d6)" style="fill: #a4a8b2"/>
   </g>
   <g id="patch_7">
    <path d="M 366.604615 312.84
L 382.164231 312.84
L 382.164231 183.942
L 366.604615 183.942
z
" clip-path="url(#p5dce6856d6)" style="fill: #a4a8b2"/>
   </g>
   <g id="patch_8">
    <path d="M 437.33014 312.84
L 452.889755 312.84
L 452.889755 183.942
L 437.33014 183.942
z
" clip-path="url(#p5dce6856d6)" style="fill: #a4a8b2"/>
   </g>
   <g id="patch_9">
    <path d="M 508.055664 312.84
L 523.61528 312.84
L 523.61528 160.072
L 508.055664 160.072
z
" clip-path="url(#p5dce6856d6)" style="fill: #a4a8b2"/>
   </g>
   <g id="patch_10">
    <path d="M 621.216503 312.84
L 636.776119 312.84
L 636.776119 186.215333
L 621.216503 186.215333
z
" clip-path="url(#p5dce6856d6)" style="fill: #a4a8b2"/>
   </g>
   <g id="patch_11">
    <path d="M 691.942028 312.84
L 707.501643 312.84
L 707.501643 185.760667
L 691.942028 185.760667
z
" clip-path="url(#p5dce6856d6)" style="fill: #a4a8b2"/>
   </g>
   <g id="patch_12">
    <path d="M 762.667552 312.84
L 778.227168 312.84
L 778.227168 162.572667
L 762.667552 162.572667
z
" clip-path="url(#p5dce6856d6)" style="fill: #a4a8b2"/>
   </g>
   <g id="patch_13">
    <path d="M 875.828392 312.84
L 891.388007 312.84
L 891.388007 175.758
L 875.828392 175.758
z
" clip-path="url(#p5dce6856d6)" style="fill: #a4a8b2"/>
   </g>
   <g id="patch_14">
    <path d="M 946.553916 312.84
L 962.113531 312.84
L 962.113531 170.984
L 946.553916 170.984
z
" clip-path="url(#p5dce6856d6)" style="fill: #a4a8b2"/>
   </g>
   <g id="text_19">
    <text style="font-size: 7.5px; font-family: 'DejaVu Sans'; text-anchor: middle" x="119.772535" y="200.282242" transform="rotate(-0 119.772535 200.282242)">47.4</text>
   </g>
   <g id="text_20">
    <text style="font-size: 7.5px; font-family: 'DejaVu Sans'; text-anchor: middle" x="190.498059" y="188.460909" transform="rotate(-0 190.498059 188.460909)">52.6</text>
   </g>
   <g id="text_21">
    <text style="font-size: 7.5px; font-family: 'DejaVu Sans'; text-anchor: middle" x="261.223584" y="191.870909" transform="rotate(-0 261.223584 191.870909)">51.1</text>
   </g>
   <g id="text_22">
    <text style="font-size: 7.5px; font-family: 'DejaVu Sans'; text-anchor: middle" x="374.384423" y="179.140242" transform="rotate(-0 374.384423 179.140242)">56.7</text>
   </g>
   <g id="text_23">
    <text style="font-size: 7.5px; font-family: 'DejaVu Sans'; text-anchor: middle" x="445.109948" y="179.140242" transform="rotate(-0 445.109948 179.140242)">56.7</text>
   </g>
   <g id="text_24">
    <text style="font-size: 7.5px; font-family: 'DejaVu Sans'; text-anchor: middle" x="515.835472" y="155.270242" transform="rotate(-0 515.835472 155.270242)">67.2</text>
   </g>
   <g id="text_25">
    <text style="font-size: 7.5px; font-family: 'DejaVu Sans'; text-anchor: middle" x="628.996311" y="181.413576" transform="rotate(-0 628.996311 181.413576)">55.7</text>
   </g>
   <g id="text_26">
    <text style="font-size: 7.5px; font-family: 'DejaVu Sans'; text-anchor: middle" x="699.721836" y="180.958909" transform="rotate(-0 699.721836 180.958909)">55.9</text>
   </g>
   <g id="text_27">
    <text style="font-size: 7.5px; font-family: 'DejaVu Sans'; text-anchor: middle" x="770.44736" y="157.770909" transform="rotate(-0 770.44736 157.770909)">66.1</text>
   </g>
   <g id="text_28">
    <text style="font-size: 7.5px; font-family: 'DejaVu Sans'; text-anchor: middle" x="883.608199" y="170.956242" transform="rotate(-0 883.608199 170.956242)">60.3</text>
   </g>
   <g id="text_29">
    <text style="font-size: 7.5px; font-family: 'DejaVu Sans'; text-anchor: middle" x="954.333724" y="166.182242" transform="rotate(-0 954.333724 166.182242)">62.4</text>
   </g>
   <g id="patch_15">
    <path d="M 128.259598 312.84
L 143.819213 312.84
L 143.819213 184.624
L 128.259598 184.624
z
" clip-path="url(#p5dce6856d6)" style="fill: #80b9ed"/>
   </g>
   <g id="patch_16">
    <path d="M 198.985122 312.84
L 214.544738 312.84
L 214.544738 174.394
L 198.985122 174.394
z
" clip-path="url(#p5dce6856d6)" style="fill: #80b9ed"/>
   </g>
   <g id="patch_17">
    <path d="M 269.710647 312.84
L 285.270262 312.84
L 285.270262 175.530667
L 269.710647 175.530667
z
" clip-path="url(#p5dce6856d6)" style="fill: #80b9ed"/>
   </g>
   <g id="patch_18">
    <path d="M 382.871486 312.84
L 398.431101 312.84
L 398.431101 178.031333
L 382.871486 178.031333
z
" clip-path="url(#p5dce6856d6)" style="fill: #80b9ed"/>
   </g>
   <g id="patch_19">
    <path d="M 453.59701 312.84
L 469.156626 312.84
L 469.156626 176.667333
L 453.59701 176.667333
z
" clip-path="url(#p5dce6856d6)" style="fill: #80b9ed"/>
   </g>
   <g id="patch_20">
    <path d="M 524.322535 312.84
L 539.88215 312.84
L 539.88215 172.802667
L 524.322535 172.802667
z
" clip-path="url(#p5dce6856d6)" style="fill: #80b9ed"/>
   </g>
   <g id="patch_21">
    <path d="M 637.483374 312.84
L 653.04299 312.84
L 653.04299 176.212667
L 637.483374 176.212667
z
" clip-path="url(#p5dce6856d6)" style="fill: #80b9ed"/>
   </g>
   <g id="patch_22">
    <path d="M 708.208899 312.84
L 723.768514 312.84
L 723.768514 183.714667
L 708.208899 183.714667
z
" clip-path="url(#p5dce6856d6)" style="fill: #80b9ed"/>
   </g>
   <g id="patch_23">
    <path d="M 778.934423 312.84
L 794.494038 312.84
L 794.494038 179.622667
L 778.934423 179.622667
z
" clip-path="url(#p5dce6856d6)" style="fill: #80b9ed"/>
   </g>
   <g id="patch_24">
    <path d="M 892.095262 312.84
L 907.654878 312.84
L 907.654878 175.303333
L 892.095262 175.303333
z
" clip-path="url(#p5dce6856d6)" style="fill: #80b9ed"/>
   </g>
   <g id="patch_25">
    <path d="M 962.820787 312.84
L 978.380402 312.84
L 978.380402 174.394
L 962.820787 174.394
z
" clip-path="url(#p5dce6856d6)" style="fill: #80b9ed"/>
   </g>
   <g id="text_30">
    <text style="font-size: 7.5px; font-family: 'DejaVu Sans'; text-anchor: middle" x="136.039406" y="179.822242" transform="rotate(-0 136.039406 179.822242)">56.4</text>
   </g>
   <g id="text_31">
    <text style="font-size: 7.5px; font-family: 'DejaVu Sans'; text-anchor: middle" x="206.76493" y="169.592242" transform="rotate(-0 206.76493 169.592242)">60.9</text>
   </g>
   <g id="text_32">
    <text style="font-size: 7.5px; font-family: 'DejaVu Sans'; text-anchor: middle" x="277.490455" y="170.728909" transform="rotate(-0 277.490455 170.728909)">60.4</text>
   </g>
   <g id="text_33">
    <text style="font-size: 7.5px; font-family: 'DejaVu Sans'; text-anchor: middle" x="390.651294" y="173.229576" transform="rotate(-0 390.651294 173.229576)">59.3</text>
   </g>
   <g id="text_34">
    <text style="font-size: 7.5px; font-family: 'DejaVu Sans'; text-anchor: middle" x="461.376818" y="171.865576" transform="rotate(-0 461.376818 171.865576)">59.9</text>
   </g>
   <g id="text_35">
    <text style="font-size: 7.5px; font-family: 'DejaVu Sans'; text-anchor: middle" x="532.102343" y="168.000909" transform="rotate(-0 532.102343 168.000909)">61.6</text>
   </g>
   <g id="text_36">
    <text style="font-size: 7.5px; font-family: 'DejaVu Sans'; text-anchor: middle" x="645.263182" y="171.410909" transform="rotate(-0 645.263182 171.410909)">60.1</text>
   </g>
   <g id="text_37">
    <text style="font-size: 7.5px; font-family: 'DejaVu Sans'; text-anchor: middle" x="715.988706" y="178.912909" transform="rotate(-0 715.988706 178.912909)">56.8</text>
   </g>
   <g id="text_38">
    <text style="font-size: 7.5px; font-family: 'DejaVu Sans'; text-anchor: middle" x="786.714231" y="174.820909" transform="rotate(-0 786.714231 174.820909)">58.6</text>
   </g>
   <g id="text_39">
    <text style="font-size: 7.5px; font-family: 'DejaVu Sans'; text-anchor: middle" x="899.87507" y="170.501576" transform="rotate(-0 899.87507 170.501576)">60.5</text>
   </g>
   <g id="text_40">
    <text style="font-size: 7.5px; font-family: 'DejaVu Sans'; text-anchor: middle" x="970.600594" y="169.592242" transform="rotate(-0 970.600594 169.592242)">60.9</text>
   </g>
   <g id="patch_26">
    <path d="M 144.526469 312.84
L 160.086084 312.84
L 160.086084 201.674
L 144.526469 201.674
z
" clip-path="url(#p5dce6856d6)" style="fill: #287aca"/>
   </g>
   <g id="patch_27">
    <path d="M 215.251993 312.84
L 230.811608 312.84
L 230.811608 175.758
L 215.251993 175.758
z
" clip-path="url(#p5dce6856d6)" style="fill: #287aca"/>
   </g>
   <g id="patch_28">
    <path d="M 285.977517 312.84
L 301.537133 312.84
L 301.537133 170.529333
L 285.977517 170.529333
z
" clip-path="url(#p5dce6856d6)" style="fill: #287aca"/>
   </g>
   <g id="patch_29">
    <path d="M 399.138357 312.84
L 414.697972 312.84
L 414.697972 170.529333
L 399.138357 170.529333
z
" clip-path="url(#p5dce6856d6)" style="fill: #287aca"/>
   </g>
   <g id="patch_30">
    <path d="M 469.863881 312.84
L 485.423497 312.84
L 485.423497 166.437333
L 469.863881 166.437333
z
" clip-path="url(#p5dce6856d6)" style="fill: #287aca"/>
   </g>
   <g id="patch_31">
    <path d="M 540.589406 312.84
L 556.149021 312.84
L 556.149021 168.028667
L 540.589406 168.028667
z
" clip-path="url(#p5dce6856d6)" style="fill: #287aca"/>
   </g>
   <g id="patch_32">
    <path d="M 653.750245 312.84
L 669.30986 312.84
L 669.30986 177.122
L 653.750245 177.122
z
" clip-path="url(#p5dce6856d6)" style="fill: #287aca"/>
   </g>
   <g id="patch_33">
    <path d="M 724.475769 312.84
L 740.035385 312.84
L 740.035385 166.437333
L 724.475769 166.437333
z
" clip-path="url(#p5dce6856d6)" style="fill: #287aca"/>
   </g>
   <g id="patch_34">
    <path d="M 795.201294 312.84
L 810.760909 312.84
L 810.760909 167.346667
L 795.201294 167.346667
z
" clip-path="url(#p5dce6856d6)" style="fill: #287aca"/>
   </g>
   <g id="patch_35">
    <path d="M 908.362133 312.84
L 923.921748 312.84
L 923.921748 169.62
L 908.362133 169.62
z
" clip-path="url(#p5dce6856d6)" style="fill: #287aca"/>
   </g>
   <g id="patch_36">
    <path d="M 979.087657 312.84
L 994.647273 312.84
L 994.647273 172.802667
L 979.087657 172.802667
z
" clip-path="url(#p5dce6856d6)" style="fill: #287aca"/>
   </g>
   <g id="text_41">
    <text style="font-size: 7.5px; font-family: 'DejaVu Sans'; text-anchor: middle" x="152.306276" y="196.872242" transform="rotate(-0 152.306276 196.872242)">48.9</text>
   </g>
   <g id="text_42">
    <text style="font-size: 7.5px; font-family: 'DejaVu Sans'; text-anchor: middle" x="223.031801" y="170.956242" transform="rotate(-0 223.031801 170.956242)">60.3</text>
   </g>
   <g id="text_43">
    <text style="font-size: 7.5px; font-family: 'DejaVu Sans'; text-anchor: middle" x="293.757325" y="165.727576" transform="rotate(-0 293.757325 165.727576)">62.6</text>
   </g>
   <g id="text_44">
    <text style="font-size: 7.5px; font-family: 'DejaVu Sans'; text-anchor: middle" x="406.918164" y="165.727576" transform="rotate(-0 406.918164 165.727576)">62.6</text>
   </g>
   <g id="text_45">
    <text style="font-size: 7.5px; font-family: 'DejaVu Sans'; text-anchor: middle" x="477.643689" y="161.635576" transform="rotate(-0 477.643689 161.635576)">64.4</text>
   </g>
   <g id="text_46">
    <text style="font-size: 7.5px; font-family: 'DejaVu Sans'; text-anchor: middle" x="548.369213" y="163.226909" transform="rotate(-0 548.369213 163.226909)">63.7</text>
   </g>
   <g id="text_47">
    <text style="font-size: 7.5px; font-family: 'DejaVu Sans'; text-anchor: middle" x="661.530052" y="172.320242" transform="rotate(-0 661.530052 172.320242)">59.7</text>
   </g>
   <g id="text_48">
    <text style="font-size: 7.5px; font-family: 'DejaVu Sans'; text-anchor: middle" x="732.255577" y="161.635576" transform="rotate(-0 732.255577 161.635576)">64.4</text>
   </g>
   <g id="text_49">
    <text style="font-size: 7.5px; font-family: 'DejaVu Sans'; text-anchor: middle" x="802.981101" y="162.544909" transform="rotate(-0 802.981101 162.544909)">64.0</text>
   </g>
   <g id="text_50">
    <text style="font-size: 7.5px; font-family: 'DejaVu Sans'; text-anchor: middle" x="916.141941" y="164.818242" transform="rotate(-0 916.141941 164.818242)">63.0</text>
   </g>
   <g id="text_51">
    <text style="font-size: 7.5px; font-family: 'DejaVu Sans'; text-anchor: middle" x="986.867465" y="168.000909" transform="rotate(-0 986.867465 168.000909)">61.6</text>
   </g>
   <g id="text_52">
    <text style="font-size: 10px; font-family: 'DejaVu Sans'; text-anchor: middle; fill: #777777" x="206.76493" y="357.0336" transform="rotate(-0 206.76493 357.0336)">Qwen3-VL</text>
   </g>
   <g id="text_53">
    <text style="font-size: 10px; font-family: 'DejaVu Sans'; text-anchor: middle; fill: #777777" x="461.376818" y="357.0336" transform="rotate(-0 461.376818 357.0336)">Kimi-K3</text>
   </g>
   <g id="text_54">
    <text style="font-size: 10px; font-family: 'DejaVu Sans'; text-anchor: middle; fill: #777777" x="715.988706" y="357.0336" transform="rotate(-0 715.988706 357.0336)">Gemini</text>
   </g>
   <g id="text_55">
    <text style="font-size: 10px; font-family: 'DejaVu Sans'; text-anchor: middle; fill: #777777" x="935.237832" y="357.0336" transform="rotate(-0 935.237832 357.0336)">GPT</text>
   </g>
   <g id="legend_1">
    <g id="patch_37">
     <path d="M 373.299844 38.929481
L 395.299844 38.929481
L 395.299844 31.229481
L 373.299844 31.229481
z
" style="fill: #a4a8b2"/>
    </g>
    <g id="text_56">
     <text style="font-size: 11px; font-family: 'DejaVu Sans'; text-anchor: start" x="404.099844" y="38.929481" transform="rotate(-0 404.099844 38.929481)">Observed</text>
    </g>
    <g id="patch_38">
     <path d="M 479.025312 38.929481
L 501.025312 38.929481
L 501.025312 31.229481
L 479.025312 31.229481
z
" style="fill: #80b9ed"/>
    </g>
    <g id="text_57">
     <text style="font-size: 11px; font-family: 'DejaVu Sans'; text-anchor: start" x="509.825312" y="38.929481" transform="rotate(-0 509.825312 38.929481)">Visual–Independent</text>
    </g>
    <g id="patch_39">
     <path d="M 639.888281 38.929481
L 661.888281 38.929481
L 661.888281 31.229481
L 639.888281 31.229481
z
" style="fill: #287aca"/>
    </g>
    <g id="text_58">
     <text style="font-size: 11px; font-family: 'DejaVu Sans'; text-anchor: start" x="670.688281" y="38.929481" transform="rotate(-0 670.688281 38.929481)">Visual–Joint</text>
    </g>
   </g>
  </g>
 </g>
 <defs>
  <clipPath id="p5dce6856d6">
   <rect x="67.86" y="67.32" width="970.92" height="245.52"/>
  </clipPath>
 </defs>
</svg>
